<?xml version="1.0" encoding="utf-8"?>
<!-- Generator: Adobe Illustrator 16.0.0, SVG Export Plug-In . SVG Version: 6.00 Build 0)  -->
<!DOCTYPE svg PUBLIC "-//W3C//DTD SVG 1.1//EN" "http://www.w3.org/Graphics/SVG/1.1/DTD/svg11.dtd">
<svg version="1.1" id="Layer_1" xmlns="http://www.w3.org/2000/svg" xmlns:xlink="http://www.w3.org/1999/xlink" x="0px" y="0px"
	 width="400px" height="86.6px" viewBox="0 0 400 86.6" enable-background="new 0 0 400 86.6" xml:space="preserve">
<path fill="#FFFFFF" d="M38.62,16.04c-1.182-1.996-3.385-3.305-6.011-3.305c-3.15,0-6.027,1.895-7.411,4.569
	c-0.478,0.904-0.771,1.895-0.864,2.913l-0.811,9.178c0,0,3.133,0.066,4.539,0.066c11.474,0,11.491-9.244,11.491-9.244
	C39.715,18.76,39.386,17.29,38.62,16.04L38.62,16.04z M56.083,35.437c-0.961-0.461-2.015-0.696-3.08-0.688H8.3
	c-1.545-0.014-3.06,0.43-4.354,1.273c-2.199,1.347-3.647,3.64-3.917,6.204c-0.27,3.115,1.4,5.776,4.031,6.909
	c0.873,0.374,1.847,0.595,2.908,0.595h14.757l-1.291,14.51c-0.088,1.054,0.018,2.019,0.331,2.926
	c0.921,2.688,3.454,4.578,6.601,4.578c3.071,0,5.873-1.824,7.301-4.406c0.529-0.942,0.877-1.965,0.97-3.098l1.291-14.51h14.753
	c1.066,0,2.062-0.221,3.01-0.586c2.824-1.142,4.979-3.803,5.262-6.918c0.292-2.856-1.263-5.583-3.869-6.786 M119.081,40.646
	c6.217-3.618,9.729-9.663,10.478-18.019c0.64-7.314-1.573-12.999-6.609-16.894c-4.922-3.808-11.038-5.732-18.176-5.732H81.235
	c-0.053,0-0.105,0.009-0.154,0.013c-1.591,0.018-3.145,0.479-4.485,1.335c-0.816,0.512-1.547,1.15-2.164,1.891
	c-1.18,1.306-1.906,2.958-2.07,4.71l-6.279,70.688c-0.172,1.921,0.348,3.6,1.472,5.036c0.454,0.6,0.965,1.137,1.586,1.573
	c1.203,0.854,2.631,1.296,4.243,1.331c0.058,0,0.098,0.021,0.163,0.021h27.977c7.949,0,15.025-2.005,21.032-5.971
	c6.164-4.058,9.637-10.086,10.333-17.89c0.528-5.86-0.617-10.875-3.394-14.867c-2.305-3.331-5.803-5.772-10.417-7.227
	L119.081,40.646z M87.056,13.793h14.162c3.71,0,6.725,0.952,8.928,2.82c2.159,1.82,3.071,4.358,2.775,7.751
	c-0.37,4.01-1.744,6.922-4.106,8.672c-2.498,1.854-5.385,2.754-8.812,2.754H85.1L87.056,13.793z M111.541,69.917
	c-3.058,1.917-6.971,2.873-11.624,2.873H81.821l1.951-22.066h18.728c4.992,0,8.791,0.321,11.016,2.282
	c2.336,2.062,3.226,4.569,2.926,8.006C116.067,65.194,114.462,68.12,111.541,69.917L111.541,69.917z M167.501,26.453
	c-5.697,0.009-11.344,1.069-16.656,3.129c-5.041,1.987-7.725,4.503-7.988,7.473c-0.146,1.644,0.295,3.027,1.304,4.116
	c1.01,1.084,2.366,1.639,4.027,1.639c0.749,0,2.27-0.207,6.733-2.044c3.564-1.459,6.979-2.204,10.152-2.204
	c3.326,0,5.627,0.891,7.019,2.692c1.217,1.622,1.684,4.129,1.389,7.447l-0.026,0.309c-10.624,0.903-18.234,2.291-23.23,4.234
	c-7.997,3.089-12.373,8.262-12.999,15.352c-0.498,5.553,1.181,9.989,4.979,13.176c3.71,3.128,8.447,4.714,14.056,4.714
	c5.816,0,10.985-1.009,15.396-2.996c1.189,1.952,3.252,2.996,6.036,2.996c2.05,0,3.909-0.723,5.518-2.128
	c1.555-1.31,2.526-3.183,2.701-5.208l2.701-30.448c0.595-6.671-0.622-11.928-3.613-15.643
	C181.368,28.669,175.481,26.453,167.501,26.453 M171.391,72.235c-3.357,1.735-6.768,2.612-10.156,2.612
	c-2.869,0-5.266-0.604-7.108-1.807c-1.691-1.102-2.432-2.639-2.247-4.697c0.507-5.64,11.17-7.609,20.582-8.239l-1.07,12.126
	 M224.881,26.453c-4.281,0.005-8.532,0.712-12.585,2.093l1.887-21.089c0.101-1.052-0.05-2.112-0.441-3.093
	c-0.969-2.569-3.415-4.35-6.468-4.35c-2.613,0-5.032,1.291-6.566,3.278c-0.965,1.217-1.524,2.6-1.656,4.164l-6.195,69.621
	c-0.396,4.561,1.696,7.478,6.094,8.416c3.459,0.652,8.116,0.987,13.818,0.987c12.324,0,21.987-3.455,28.725-10.254
	c5.076-5.067,8.02-11.721,8.729-19.768c0.797-9.02-1.115-16.316-5.667-21.715C239.884,29.237,233.266,26.452,224.881,26.453
	 M230.312,67.675c-3.653,4.01-8.654,5.975-15.299,5.975c-2.732,0-4.979-0.097-6.702-0.251l2.829-31.792
	c3.152-1.368,6.552-2.075,9.989-2.075c4.354,0,7.759,1.419,10.381,4.345c2.675,3.115,3.798,7.363,3.34,12.585
	C234.44,61.008,232.915,64.78,230.312,67.675 M286.752,26.454c-4.252,0-8.486,0.705-12.567,2.093l1.868-21.089
	c0.097-1.037-0.042-2.082-0.405-3.059c-0.96-2.577-3.419-4.384-6.499-4.384c-2.617,0-5.041,1.3-6.565,3.296
	c-0.958,1.184-1.539,2.628-1.666,4.146l-6.173,69.621c-0.419,4.561,1.688,7.478,6.08,8.416c3.46,0.652,8.108,0.987,13.832,0.987
	c12.304,0,21.971-3.455,28.717-10.254c5.085-5.068,8.02-11.722,8.733-19.768c0.797-9.02-1.102-16.317-5.685-21.715
	C301.76,29.238,295.128,26.453,286.752,26.454 M292.192,67.675c-3.657,4.01-8.662,5.976-15.303,5.976
	c-2.736,0-4.979-0.097-6.697-0.251l2.824-31.792c3.152-1.37,6.553-2.077,9.989-2.075c4.362,0,7.755,1.418,10.368,4.345
	c2.688,3.115,3.812,7.362,3.349,12.585C296.317,61.009,294.787,64.781,292.192,67.675 M348.712,26.454
	c-8.945,0-16.427,2.781-22.239,8.28c-5.878,5.552-9.235,12.629-9.976,21.01c-0.793,8.945,1.277,16.304,6.164,21.851
	c5.023,5.892,12.545,8.888,22.314,8.888c6.31,0,12.259-1.141,17.705-3.393c4.517-1.917,6.936-4.371,7.2-7.337
	c0.183-1.584-0.279-3.175-1.282-4.415c-1.349-1.674-3.182-2.349-5.799-1.731c-0.631,0.154-1.19,0.383-1.662,0.644
	c-0.475,0.271-0.966,0.513-1.472,0.723c-0.727,0.326-1.353,0.625-1.842,0.833c-3.564,1.542-7.227,2.326-10.884,2.326
	c-5.332,0-9.209-1.661-11.896-5.036c-1.719-2.159-2.724-4.821-2.979-7.967h33.763c2.349,0,4.327-0.794,5.86-2.371
	c1.494-1.529,2.353-3.477,2.56-5.803c0.661-7.421-1.181-13.664-5.49-18.604C363.893,29.116,357.152,26.454,348.712,26.454
	 M333.002,50.107c0.661-2.838,1.956-5.262,3.869-7.227c2.71-2.657,6.266-3.957,10.856-3.957c4.099,0,7.152,1.221,9.298,3.701
	c1.666,2.085,2.494,4.53,2.516,7.482H333.002 M399.962,7.457c0.157-1.449-0.166-2.911-0.921-4.159
	c-1.181-1.982-3.366-3.283-5.983-3.283c-3.133,0-5.988,1.882-7.376,4.543c-0.476,0.9-0.766,1.886-0.855,2.899l-6.367,71.692
	c-0.093,0.979,0.02,1.967,0.331,2.899c0.912,2.675,3.441,4.552,6.574,4.552c3.058,0,5.838-1.807,7.271-4.375
	c0.52-0.939,0.859-1.948,0.956-3.076L399.962,7.457"/>
</svg>
